HIERARCHY
ROOT Hips
{
	OFFSET 0.00000 0.00000 0.00000
	CHANNELS 6 Xposition Yposition Zposition Zrotation Yrotation Xrotation 
	JOINT LHipJoint
	{
		OFFSET 0 0 0
		CHANNELS 3 Zrotation Yrotation Xrotation
		JOINT LeftHip
		{
			OFFSET 1.75344 -1.53157 0.77399
			CHANNELS 3 Zrotation Yrotation Xrotation
			JOINT LeftKnee
			{
				OFFSET 2.25415 -6.19323 0.00000
				CHANNELS 3 Zrotation Yrotation Xrotation
				JOINT LeftAnkle
				{
					OFFSET 2.30342 -6.32861 0.00000
					CHANNELS 3 Zrotation Yrotation Xrotation
					JOINT LeftToe
					{
						OFFSET 0.10958 -0.30108 1.49206
						CHANNELS 3 Zrotation Yrotation Xrotation
						End Site
						{
							OFFSET 0.00000 -0.00000 0.77783
						}
					}
				}
			}
		}
	}
	JOINT RHipJoint
	{
		OFFSET 0 0 0
		CHANNELS 3 Zrotation Yrotation Xrotation
		JOINT RightHip
		{
			OFFSET -1.81912 -1.53156 0.77399
			CHANNELS 3 Zrotation Yrotation Xrotation
			JOINT RightKnee
			{
				OFFSET -2.22882 -6.12365 0.00000
				CHANNELS 3 Zrotation Yrotation Xrotation
				JOINT RightAnkle
				{
					OFFSET -2.21943 -6.09785 0.00000
					CHANNELS 3 Zrotation Yrotation Xrotation
					JOINT RightToe
					{
						OFFSET -0.18931 -0.52012 1.59379
						CHANNELS 3 Zrotation Yrotation Xrotation
						End Site
						{
							OFFSET -0.00000 -0.00000 0.84686
						}
					}
				}
			}
		}
	}
	JOINT lowerback
	{
		OFFSET 0 0 0
		CHANNELS 3 Zrotation Yrotation Xrotation
		JOINT Chest
		{
			OFFSET -0.00200 1.66634 -0.14248
			CHANNELS 3 Zrotation Yrotation Xrotation
			JOINT Chest2
			{
				OFFSET -0.00875 1.64542 0.09514
				CHANNELS 3 Zrotation Yrotation Xrotation
				JOINT lowerneck
				{
					OFFSET 0 0 0
					CHANNELS 3 Zrotation Yrotation Xrotation
					JOINT Neck
					{
						OFFSET 0.02257 1.59605 0.00839
						CHANNELS 3 Zrotation Yrotation Xrotation
						JOINT Head
						{
							OFFSET -0.10214 1.57530 -0.23335
							CHANNELS 3 Zrotation Yrotation Xrotation
							End Site
							{
								OFFSET -0.03588 1.60717 -0.08062
							}
						}
					}
				}
				JOINT LeftCollar
				{
					OFFSET 0 0 0
					CHANNELS 3 Zrotation Yrotation Xrotation
					JOINT LeftShoulder
					{
						OFFSET 2.54983 1.10186 0.40078
CHANNELS 3 Zrotation Xrotation Yrotation
						JOINT LeftElbow
						{
OFFSET 0 -4.288400 0.000000
CHANNELS 3 Zrotation Xrotation Yrotation
							JOINT LeftWrist
							{
OFFSET 0 -3.065520 -0.000000
CHANNELS 3 Zrotation Xrotation Yrotation
								JOINT lhand
								{
									OFFSET 0 0 0
CHANNELS 3 Zrotation Xrotation Yrotation
									JOINT LFingers
									{
OFFSET 0 -0.753040 0.000000
CHANNELS 3 Zrotation Xrotation Yrotation
										End Site
										{
OFFSET 0 -0.607120 0.000000
										}
									}
								}
								JOINT LThumb
								{
OFFSET 0 0.000000 0.000000
CHANNELS 3 Zrotation Xrotation Yrotation
									End Site
									{
OFFSET 0 -0.616390 0.616390
									}
								}
							}
						}
					}
				}
				JOINT RightCollar
				{
					OFFSET 0 0 0
					CHANNELS 3 Zrotation Yrotation Xrotation
					JOINT RightShoulder
					{
						OFFSET -2.60909 1.35448 0.21802
CHANNELS 3 Zrotation Xrotation Yrotation
						JOINT RightElbow
						{
OFFSET 0 -4.521720 -0.000000
CHANNELS 3 Zrotation Xrotation Yrotation
							JOINT RightWrist
							{
OFFSET 0 -2.891400 0.000000
CHANNELS 3 Zrotation Xrotation Yrotation
								JOINT rhand
								{
									OFFSET 0 0 0
CHANNELS 3 Zrotation Xrotation Yrotation
									JOINT RFingers
									{
OFFSET 0 -0.680540 0.000000
CHANNELS 3 Zrotation Xrotation Yrotation
										End Site
										{
OFFSET 0 -0.548670 0.000000
										}
									}
								}
								JOINT RThumb
								{
OFFSET 0 0.000000 0.000000
CHANNELS 3 Zrotation Xrotation Yrotation
									End Site
									{
OFFSET 0 -0.557050 0.557050
									}
								}
							}
						}
					}
				}
			}
		}
	}
}
MOTION
Frames: 5
Frame Time: 0.008333333333333333
8.897700 15.072300 41.992200 -178.865000 -18.456200 176.907000 0.000000 0.000000 0.000000 -25.714600 -25.726400 -0.258600 2.923800 10.570600 30.845000 1.707000 -1.096400 -24.396000 3.911300 -12.041400 -35.878700 0.000000 0.000000 0.000000 29.114900 10.399700 1.781100 -2.121000 -9.113800 26.151800 -1.256600 -25.672600 -42.127800 -1.874100 -8.598700 24.547900 3.024400 1.984700 11.107900 0.975200 3.154600 -2.481600 -1.243200 1.387900 -8.787100 3.484000 17.096400 -7.980600 -0.878800 22.727700 11.843500 0.856300 11.172900 5.344000 0.000000 -0.000000 0.000000 2.395700 9.658800 -40.175100 19.254000 -29.733100 5.156200 5.092100 12.608100 40.000800 0.000000 0.000000 0.000000 -7.125000 0.000000 0.000000 -15.448200 -8.865400 -18.269800 0.000000 -0.000000 0.000000 -8.026900 13.373500 54.960700 -20.220900 -30.907500 -5.644400 -42.815500 45.277300 63.019900 0.000000 0.000000 0.000000 7.125000 0.000000 -0.000000 -174.050800 9.590300 4.902100
8.932630 15.109374 41.963922 -179.199175 -17.024363 179.030184 0.000000 0.000000 0.000000 -24.941678 -25.921371 -2.060711 2.795686 10.356707 30.139809 1.625825 0.027307 -24.144404 4.136725 -12.339939 -36.945621 0.000000 0.000000 0.000000 28.685622 12.574414 0.290820 -2.119665 -9.111004 26.143202 -1.106665 -26.040821 -41.879282 -1.707060 -8.226854 23.405439 1.459883 2.576476 8.945324 1.125071 3.692006 -3.347620 -0.222108 1.735810 -8.555772 4.083017 17.054492 -6.626572 -1.233715 22.665235 11.475369 0.547105 11.167023 5.120231 0.000000 0.000000 0.000000 2.199843 10.379082 -39.734798 19.188167 -29.651807 5.123638 3.266274 14.211705 40.193294 0.000000 0.000000 0.000000 -7.125000 0.000000 0.000000 -16.372965 -8.837518 -19.444203 0.000000 0.000000 0.000000 -8.074458 14.024591 53.818871 -20.286187 -30.985483 -5.677991 -21.229584 25.823472 62.786641 0.000000 0.000000 0.000000 7.125000 0.000000 0.000000 -168.410277 4.836675 10.808598
8.939845 15.119522 41.959681 -179.105841 -16.747247 179.272539 0.000000 0.000000 0.000000 -24.644595 -25.847895 -2.362429 2.785596 10.339645 30.083657 1.651731 0.039224 -24.339664 4.062870 -12.243626 -36.599363 0.000000 0.000000 0.000000 28.768470 12.840439 0.172733 -2.091007 -9.053140 25.961746 -1.048167 -25.907687 -41.472933 -1.659804 -8.117721 23.072580 1.016138 2.531960 8.619231 1.303441 3.580595 -3.672508 0.239855 1.704787 -8.757828 4.790404 17.202364 -5.423162 -1.652667 22.869451 11.186105 0.250550 11.287735 4.972649 0.000000 0.000000 0.000000 1.997203 11.126819 -38.784000 18.968147 -29.379133 5.015224 5.572700 13.688619 41.267735 0.000000 0.000000 0.000000 -7.125000 0.000000 0.000000 -15.316399 -10.139801 -18.382209 0.000000 0.000000 0.000000 -8.003747 14.170527 51.970842 -20.929868 -31.746161 -6.013061 8.811596 -3.472839 61.036339 0.000000 0.000000 0.000000 7.125000 0.000000 0.000000 -20.518220 -4.686836 -159.843406
8.937689 15.120555 41.962167 -179.170644 -16.707221 179.371723 0.000000 0.000000 0.000000 -24.795561 -26.238113 -2.247775 2.782164 10.333862 30.064673 1.645954 0.295612 -24.384609 3.985562 -12.141127 -36.232997 0.000000 0.000000 0.000000 28.632738 12.745606 0.018610 -2.096036 -9.063193 25.993348 -1.111763 -25.888606 -41.732366 -1.605477 -7.990420 22.685078 0.818390 2.410338 8.489752 1.284238 3.387541 -3.945489 0.361218 1.616585 -8.988988 5.587217 17.296754 -4.171805 -2.072682 23.007066 10.806246 -0.070066 11.382749 4.799674 0.000000 0.000000 0.000000 2.104004 11.798954 -38.660643 19.157215 -29.613542 5.108286 5.058649 13.619983 40.736070 0.000000 0.000000 0.000000 -7.125000 0.000000 0.000000 -15.524814 -9.566025 -18.523713 0.000000 0.000000 0.000000 -8.111325 14.996699 53.263446 -19.908335 -30.531743 -5.484707 -15.140205 20.288175 51.675979 0.000000 0.000000 0.000000 7.125000 0.000000 0.000000 -11.830298 -9.068002 -169.959871
8.938062 15.117169 41.963362 -179.102307 -16.729646 179.256369 0.000000 0.000000 0.000000 -24.694305 -25.967089 -2.289686 2.796354 10.357875 30.143603 1.665079 0.094845 -24.457555 3.957705 -12.102868 -36.098434 0.000000 0.000000 0.000000 28.781407 12.888541 0.205237 -2.090439 -9.051929 25.957997 -1.117966 -25.956437 -41.834971 -1.813721 -8.465031 24.136720 2.001220 2.199360 7.508428 0.556988 3.169007 -3.238856 -0.974179 1.455314 -7.543476 6.180988 17.356595 -4.121951 -2.367589 23.054625 9.645567 -0.273911 11.438133 4.532622 0.000000 0.000000 0.000000 3.296446 10.683375 -38.807388 19.341248 -29.840548 5.199600 3.532628 13.625956 40.275269 0.000000 0.000000 0.000000 -7.125000 0.000000 0.000000 -16.246578 -8.944659 -19.306771 0.000000 0.000000 0.000000 -6.827164 13.601088 52.535262 -19.546358 -30.091947 -5.301979 -12.891928 19.678914 51.224941 0.000000 0.000000 0.000000 7.125000 0.000000 0.000000 -12.734130 -10.033287 -169.406343
